<?xml version="1.0" encoding="UTF-8"?>
<svg width="180px" height="36px" viewBox="0 0 180 36" version="1.1" xmlns="http://www.w3.org/2000/svg" xmlns:xlink="http://www.w3.org/1999/xlink">
    <!-- Generator: Sketch 49.3 (51167) - http://www.bohemiancoding.com/sketch -->
    <title>logo</title>
    <desc>Created with Sketch.</desc>
    <defs>
        <linearGradient x1="1.05288143%" y1="98.9442653%" x2="100.000642%" y2="-0.000320780137%" id="linearGradient-1">
            <stop stop-color="#4E65AC" offset="0%"></stop>
            <stop stop-color="#4C6FB5" offset="10.87%"></stop>
            <stop stop-color="#4586C6" offset="37.05%"></stop>
            <stop stop-color="#3F95D2" offset="61.46%"></stop>
            <stop stop-color="#3C9FD9" offset="83.17%"></stop>
            <stop stop-color="#3BA2DB" offset="100%"></stop>
        </linearGradient>
    </defs>
    <g id="xplodde-symbols" stroke="none" stroke-width="1" fill="none" fill-rule="evenodd">
        <g id="background-app" transform="translate(-28.000000, -27.000000)" fill-rule="nonzero">
            <g id="logo" transform="translate(28.000000, 27.000000)">
                <path d="M30.8021008,4.76511419 L22.3031953,4.76511419 L26.7707695,0.297539994 L35.269675,0.297539994 L35.269675,8.79644554 L30.8021008,13.2640197 L30.8021008,4.76511419 Z M0.400448563,26.6678609 L0.400448563,35.1667664 L8.8993541,35.1667664 L13.3680469,30.6980737 L4.86914133,30.6980737 L4.86914133,22.2002867 L0.400448563,26.6678609 Z M13.3669283,4.76511419 L8.8993541,0.297539994 L0.400448563,0.297539994 L0.400448563,8.79644554 L4.86802276,13.2640197 L4.86802276,4.76511419 L13.3669283,4.76511419 Z M22.3031953,30.6991922 L26.7707695,35.167885 L35.269675,35.167885 L35.269675,26.6689795 L30.8021008,22.2014053 L30.8021008,30.7003108 L22.3031953,30.7003108 L22.3031953,30.6991922 Z" id="Shape" fill="url(#linearGradient-1)"></path>
                <g id="Group" transform="translate(46.979999, 4.474286)" fill="#FFFFFF">
                    <path d="M62.5281416,4.07159992 C59.3916674,4.07159992 57.1746588,4.76735133 55.8782346,6.15885416 C54.5806917,7.55035699 53.9330389,9.90830551 53.9330389,13.2326997 C53.9330389,16.5570939 54.5818103,18.9094496 55.8782346,20.2897667 C57.1746588,21.6689653 59.3916674,22.3591238 62.5281416,22.3591238 C65.6411258,22.3591238 67.8391186,21.6689653 69.1243572,20.2897667 C70.4095957,18.9105682 71.0516557,16.5582125 71.0516557,13.2326997 C71.0516557,9.90718694 70.4084771,7.55035699 69.1243572,6.15885416 C67.8391186,4.76735133 65.6400072,4.07159992 62.5281416,4.07159992 Z M65.7283744,17.7416611 C65.150073,18.5324911 64.0840744,18.9273468 62.527023,18.9273468 C60.9229916,18.9273468 59.8390959,18.5324911 59.2730988,17.7416611 C58.7071017,16.9519497 58.4241031,15.4485897 58.4241031,13.2315812 C58.4241031,10.9922012 58.7071017,9.47653695 59.2730988,8.68682554 C59.8390959,7.89711413 60.9229916,7.50225842 62.527023,7.50225842 C64.0829558,7.50225842 65.150073,7.89711413 65.7283744,8.68682554 C66.3055572,9.47765552 66.5952672,10.9922012 66.5952672,13.2315812 C66.5952672,15.4485897 66.3066758,16.9519497 65.7283744,17.7416611 Z" id="Shape"></path>
                    <path d="M107.702766,2.97539994 C107.702766,4.64990133 107.843706,5.99442416 108.126705,7.00784986 C106.287774,5.0503499 104.164725,4.07159992 101.759797,4.07159992 C99.566278,4.07159992 97.9633652,4.77853705 96.9488209,6.19352987 C95.9353952,7.6085227 95.4275638,9.91949123 95.4275638,13.1264354 C95.4275638,16.1454597 96.0237623,18.4318196 97.2139223,19.988871 C98.4052009,21.5448038 100.521538,22.3233295 103.562934,22.3233295 C104.907456,22.3233295 106.392919,22.2114724 108.019322,21.9877581 C109.646843,21.7640438 110.979062,21.4396581 112.015978,21.014601 L112.015978,0.0838928554 L107.700529,0.0838928554 L107.700529,2.97539994 L107.702766,2.97539994 Z M107.702766,18.4676139 C106.335872,18.7975925 104.991349,18.939651 103.670316,18.8915525 C102.278814,18.8680625 101.300064,18.4441239 100.734067,17.6186182 C100.168069,16.7931125 99.8738851,15.296464 99.8492765,13.1264354 C99.8727665,11.0045055 100.108785,9.56602266 100.557332,8.81098696 C101.005879,8.05595126 101.948835,7.6789927 103.387318,7.6789927 C104.095374,7.6789927 104.755331,7.83223698 105.368308,8.13872555 C105.981285,8.44521411 106.759811,8.94074125 107.702766,9.62418838 L107.702766,18.4676139 L107.702766,18.4676139 Z" id="Shape"></path>
                    <path d="M87.3827982,7.00673129 C85.5438668,5.04923133 83.4208183,4.07048135 81.0158898,4.07048135 C78.8223713,4.07048135 77.2194584,4.77741847 76.2049142,6.1924113 C75.1914885,7.60740413 74.6836571,9.91837266 74.6836571,13.1253169 C74.6836571,16.1443411 75.2798556,18.4307011 76.4700156,19.9877525 C77.6612941,21.5436853 79.7776312,22.322211 82.8190269,22.322211 C84.1635497,22.322211 85.6490125,22.2103538 87.2754154,21.9866396 C88.9029368,21.7629253 90.2351553,21.4385396 91.272071,21.0134824 L91.272071,0.082774284 L86.9566225,0.082774284 L86.9566225,2.97539994 C86.9588597,4.64990133 87.0997997,5.99330559 87.3827982,7.00673129 Z M86.9588597,18.4676139 C85.5919654,18.7975925 84.2474426,18.939651 82.9264097,18.8915525 C81.5349069,18.8680625 80.5561569,18.4441239 79.9901598,17.6186182 C79.4241627,16.7931125 79.1299784,15.296464 79.1053698,13.1264354 C79.1288598,11.0045055 79.3648784,9.56602266 79.8134255,8.81098696 C80.2619727,8.05595126 81.2049283,7.6789927 82.6434112,7.6789927 C83.3514669,7.6789927 84.011424,7.83223698 84.6244011,8.13872555 C85.2373783,8.44521411 86.015904,8.94074125 86.9588597,9.62418838 L86.9588597,18.4676139 L86.9588597,18.4676139 Z" id="Shape"></path>
                    <path d="M132.391874,10.0839212 C132.391874,8.08055984 131.766593,6.57719987 130.517149,5.57384132 C129.266586,4.57160134 127.263225,4.07048135 124.503709,4.07048135 C121.509293,4.07048135 119.362755,4.74833562 118.06633,6.10404416 C116.768788,7.45975271 116.121135,9.82441266 116.121135,13.1957869 C116.121135,16.4978097 116.781092,18.8434539 118.102125,20.2349567 C119.422039,21.6264596 121.650233,22.322211 124.786707,22.322211 C127.923182,22.322211 130.30462,21.9329481 131.932142,21.1544224 L131.542879,18.3960253 C129.160322,18.6790239 127.08649,18.8199639 125.318029,18.8199639 C123.762096,18.8199639 122.641288,18.5671668 121.95784,18.0593353 C121.273275,17.5526225 120.849336,16.5447897 120.684906,15.0358368 L127.758752,15.0358368 C130.847127,15.0358368 132.391874,13.385944 132.391874,10.0839212 Z M126.555169,12.0302355 L120.613318,12.0302355 C120.660298,10.2382841 120.972379,9.02910839 121.55068,8.40494554 C122.127863,7.7807827 123.17149,7.46758271 124.681562,7.46758271 C125.977986,7.46758271 126.873962,7.65662127 127.369489,8.03357984 C127.865016,8.41165697 128.11222,9.0716141 128.11222,10.0145698 C128.111102,11.3579741 127.592085,12.0302355 126.555169,12.0302355 Z" id="Shape"></path>
                    <path d="M44.5773077,21.0492767 C45.4139991,21.8747824 46.5515862,22.2875353 47.9911876,22.2875353 C49.6410804,22.2875353 50.8681533,22.087311 51.6701689,21.6868624 L51.1746418,18.5034082 L49.689179,18.5034082 C48.9822419,18.5034082 48.4565133,18.3389782 48.115349,18.0078811 C47.7730662,17.6779025 47.614229,17.1711897 47.637719,16.486624 L47.637719,0.082774284 L43.3222705,0.082774284 L43.3222705,17.5470296 C43.321152,19.057101 43.7406163,20.223771 44.5773077,21.0492767 Z" id="Shape"></path>
                    <path d="M26.2450409,19.3848425 C28.0839723,21.3423424 30.2070208,22.3210924 32.6119493,22.3210924 C34.8054679,22.3210924 36.4083807,21.6141553 37.422925,20.1991624 C38.4363506,18.7841696 38.9441821,16.4732011 38.9441821,13.2662569 C38.9441821,10.2472326 38.3479835,7.9608727 37.1578235,6.40493987 C35.966545,4.84900704 33.8502079,4.07048135 30.8088122,4.07048135 C29.4642894,4.07048135 27.9788266,4.18233849 26.3524237,4.40605277 C24.7249024,4.62976705 23.3926838,4.95415276 22.3557681,5.37920989 L22.3557681,26.3982852 L26.6712166,26.3982852 L26.6712166,23.4161738 C26.6689795,21.742791 26.5280395,20.3982682 26.2450409,19.3848425 Z M26.6689795,7.92507841 C28.0358737,7.59509985 29.3803965,7.45304128 30.7014294,7.50113985 C32.0929322,7.52462985 33.0716822,7.94856841 33.6376793,8.77407411 C34.2036764,9.5995798 34.4978607,11.0962283 34.5224693,13.2662569 C34.4989793,15.3881868 34.2629607,16.8266697 33.8144136,17.5817054 C33.3658665,18.3367411 32.4229108,18.7136996 30.9844279,18.7136996 C30.2763722,18.7136996 29.6164151,18.5604553 29.003438,18.2539668 C28.3904609,17.9474782 27.6119352,17.4519511 26.6689795,16.7685039 L26.6689795,7.92507841 L26.6689795,7.92507841 Z" id="Shape"></path>
                    <polygon id="Shape" points="5.26735275 21.8982724 9.61747695 14.4698397 10.1130041 14.4698397 14.4631283 21.8982724 18.9911053 21.8982724 13.5078683 12.9843769 18.5660482 4.56600848 14.0738654 4.56600848 10.1476798 11.3579741 9.58168266 11.3579741 5.65549703 4.56600848 1.16443283 4.56600848 6.22149416 12.9843769 0.739375699 21.8982724"></polygon>
                </g>
            </g>
        </g>
    </g>
</svg>