<?xml version="1.0" encoding="UTF-8"?>
<svg width="14px" height="16px" viewBox="0 0 14 16" version="1.1" xmlns="http://www.w3.org/2000/svg" xmlns:xlink="http://www.w3.org/1999/xlink">
    <!-- Generator: Sketch 49.3 (51167) - http://www.bohemiancoding.com/sketch -->
    <title>Page 1</title>
    <desc>Created with Sketch.</desc>
    <defs></defs>
    <g id="Welcome" stroke="none" stroke-width="1" fill="none" fill-rule="evenodd">
        <g id="03-wallet-receive" transform="translate(-876.000000, -243.000000)" stroke="#516889">
            <g id="Page-1" transform="translate(876.000000, 243.000000)">
                <path d="M11.0064,3.5 L11.5004,3.5 C12.0524,3.5 12.5004,3.948 12.5004,4.5 L12.5004,14.5 C12.5004,15.052 12.0524,15.5 11.5004,15.5 L4.5004,15.5 C3.9474,15.5 3.5004,15.052 3.5004,14.5 L3.5004,14.002" id="Stroke-1"></path>
                <path d="M1.5,0.5 L8.5,0.5 C9.052,0.5 9.5,0.948 9.5,1.5 L9.5,11.5 C9.5,12.052 9.052,12.5 8.5,12.5 L1.5,12.5 C0.948,12.5 0.5,12.052 0.5,11.5 L0.5,1.5 C0.5,0.948 0.948,0.5 1.5,0.5 Z" id="Stroke-3"></path>
            </g>
        </g>
    </g>
</svg>