<?xml version="1.0" encoding="UTF-8"?>
<svg width="16px" height="16px" viewBox="0 0 16 16" version="1.1" xmlns="http://www.w3.org/2000/svg" xmlns:xlink="http://www.w3.org/1999/xlink">
    <!-- Generator: Sketch 49.3 (51167) - http://www.bohemiancoding.com/sketch -->
    <title>Group</title>
    <desc>Created with Sketch.</desc>
    <defs></defs>
    <g id="xplodde-symbols" stroke="none" stroke-width="1" fill="none" fill-rule="evenodd">
        <g id="off-Wallet-settings" transform="translate(-67.000000, -27.000000)" stroke="#8798B2">
            <g id="Group" transform="translate(68.000000, 28.000000)">
                <path d="M1.4042178,2.69527519 L2.69527519,1.4042178 L4.48629583,2.48027041 C4.82680579,2.28892645 5.19200529,2.13667426 5.58189433,2.02660004 L6.08700125,0 L7.91299875,0 L8.41810567,2.02660004 C8.80799471,2.13667426 9.17319421,2.28789771 9.51370417,2.4833566 L11.3047248,1.4042178 L12.5957822,2.69527519 L11.5197296,4.48629583 C11.7110736,4.82680579 11.8633257,5.19200529 11.9734,5.58189433 L14,6.08700125 L14,7.91299875 L11.9734,8.41810567 C11.8633257,8.80799471 11.7121023,9.17319421 11.5166434,9.51370417 L12.5957822,11.3047248 L11.3047248,12.5957822 L9.51370417,11.5197296 C9.17319421,11.7110736 8.80799471,11.8633257 8.41810567,11.9734 L7.91299875,14 L6.08700125,14 L5.58189433,11.9734 C5.19200529,11.8633257 4.82680579,11.7121023 4.48629583,11.5166434 L2.69527519,12.5957822 L1.4042178,11.3047248 L2.48027041,9.51370417 C2.28892645,9.17319421 2.13667426,8.80799471 2.02660004,8.41810567 L0,7.91299875 L0,6.08700125 L2.02660004,5.58189433 C2.13667426,5.19200529 2.28789771,4.82680579 2.4833566,4.48629583 L1.4042178,2.69527519 Z" id="Shape"></path>
                <circle id="Oval" cx="7" cy="7" r="3"></circle>
            </g>
        </g>
    </g>
</svg>